<!DOCTYPE svg PUBLIC "-//W3C//DTD SVG 1.1//EN" "http://www.w3.org/Graphics/SVG/1.1/DTD/svg11.dtd">
<!-- Uploaded to: SVG Repo, www.svgrepo.com, Transformed by: SVG Repo Mixer Tools -->
<svg fill="#3399FF" height="800px" width="800px" version="1.1" id="Layer_1" xmlns="http://www.w3.org/2000/svg" xmlns:xlink="http://www.w3.org/1999/xlink" viewBox="0 0 512 512" enable-background="new 0 0 512 512" xml:space="preserve" stroke="#3399FF">
<g id="SVGRepo_bgCarrier" stroke-width="0"/>
<g id="SVGRepo_tracerCarrier" stroke-linecap="round" stroke-linejoin="round"/>
<g id="SVGRepo_iconCarrier"> <path d="M93.1,325.8V139.6H46.5C20.9,139.6,0,160.5,0,186.2v279.3C0,491.1,20.9,512,46.5,512h279.3c25.7,0,46.5-20.9,46.5-46.5 v-46.5H186.2C134.8,418.9,93.1,377.2,93.1,325.8z M465.5,0H186.2c-25.7,0-46.5,20.9-46.5,46.5v279.3c0,25.7,20.9,46.5,46.5,46.5 h279.3c25.7,0,46.5-20.9,46.5-46.5V46.5C512,20.9,491.1,0,465.5,0z M442.2,209.5h-93.1v93.1h-46.5v-93.1h-93.1v-46.5h93.1V69.8h46.5 v93.1h93.1V209.5z"/> </g>
</svg>