<?xml version="1.0" encoding="UTF-8"?>
<!-- Uploaded to: SVG Find, www.svgrepo.com, Generator: SVG Find Mixer Tools -->
<svg fill="#000000" width="800px" height="800px" version="1.1" viewBox="144 144 512 512" xmlns="http://www.w3.org/2000/svg">
 <g>
  <path d="m562.16 279.82h-329.14c-9.4414 0-17.094-7.6523-17.094-17.094s7.6523-17.094 17.094-17.094h329.14c9.4453 0 17.098 7.6523 17.098 17.094-0.003906 9.4414-7.6562 17.094-17.098 17.094z"/>
  <path d="m562.16 358.87h-329.14c-9.4414 0-17.094-7.6523-17.094-17.094s7.6523-17.094 17.094-17.094h329.14c9.4453 0 17.098 7.6523 17.098 17.094-0.003906 9.4414-7.6562 17.094-17.098 17.094z"/>
  <path d="m353.34 437.93h-120.32c-9.4414 0-17.094-7.6523-17.094-17.098 0-9.4453 7.6523-17.094 17.094-17.094h120.32c9.4414 0 17.094 7.6484 17.094 17.094 0 9.4453-7.6523 17.098-17.094 17.098z"/>
  <path d="m350.46 516.98h-117.45c-9.4414 0-17.094-7.6523-17.094-17.098 0-9.4453 7.6523-17.098 17.094-17.098h117.45c9.4414 0 17.094 7.6523 17.094 17.098-0.003906 9.4453-7.6562 17.098-17.098 17.098z"/>
  <path d="m547.23 444.34h-44.352v-44.348c0-9.4414-7.6523-17.094-17.098-17.094-9.4453 0-17.098 7.6523-17.098 17.094v44.348h-44.352c-9.4453 0-17.098 7.6523-17.098 17.098 0 9.4453 7.6523 17.098 17.098 17.098h44.352v44.352c0 9.4453 7.6523 17.098 17.098 17.098 9.4453 0 17.098-7.6523 17.098-17.098v-44.352h44.352c9.4453 0 17.098-7.6523 17.098-17.098 0-9.4453-7.6523-17.098-17.098-17.098z"/>
 </g>
</svg>