<svg width="30" height="36" viewBox="0 0 30 36" fill="none" xmlns="http://www.w3.org/2000/svg">
<path d="M27.3739 12.78V5.97C27.3739 3.855 26.5776 3 24.5992 3H19.5723C17.5939 3 16.7976 3.855 16.7976 5.97V12.765C16.7976 14.895 17.5939 15.735 19.5723 15.735H24.5992C26.5776 15.75 27.3739 14.895 27.3739 12.78Z" fill="black"/>
<path d="M27.3739 29.655V23.595C27.3739 21.21 26.5776 20.25 24.5992 20.25H19.5723C17.5939 20.25 16.7976 21.21 16.7976 23.595V29.655C16.7976 32.04 17.5939 33 19.5723 33H24.5992C26.5776 33 27.3739 32.04 27.3739 29.655Z" fill="black"/>
<path d="M13.0649 12.78V5.97C13.0649 3.855 12.2685 3 10.2901 3H5.26326C3.28486 3 2.48853 3.855 2.48853 5.97V12.765C2.48853 14.895 3.28486 15.735 5.26326 15.735H10.2901C12.2685 15.75 13.0649 14.895 13.0649 12.78Z" fill="black"/>
<path d="M13.0649 29.655V23.595C13.0649 21.21 12.2685 20.25 10.2901 20.25H5.26326C3.28486 20.25 2.48853 21.21 2.48853 23.595V29.655C2.48853 32.04 3.28486 33 5.26326 33H10.2901C12.2685 33 13.0649 32.04 13.0649 29.655Z" fill="black"/>
</svg>
