<svg width="31" height="30" viewBox="0 0 31 30" fill="none" xmlns="http://www.w3.org/2000/svg">
<path fill-rule="evenodd" clip-rule="evenodd" d="M19.0006 17.0006H18.2106L17.9306 16.7306C19.1306 15.3306 19.7506 13.4206 19.4106 11.3906C18.9406 8.61063 16.6206 6.39063 13.8206 6.05063C9.59063 5.53063 6.03063 9.09063 6.55063 13.3206C6.89063 16.1206 9.11063 18.4406 11.8906 18.9106C13.9206 19.2506 15.8306 18.6306 17.2306 17.4306L17.5006 17.7106V18.5006L21.7506 22.7506C22.1606 23.1606 22.8306 23.1606 23.2406 22.7506C23.6506 22.3406 23.6506 21.6706 23.2406 21.2606L19.0006 17.0006ZM13.0006 17.0006C10.5106 17.0006 8.50063 14.9906 8.50063 12.5006C8.50063 10.0106 10.5106 8.00063 13.0006 8.00063C15.4906 8.00063 17.5006 10.0106 17.5006 12.5006C17.5006 14.9906 15.4906 17.0006 13.0006 17.0006Z" fill="black"/>
</svg>
