<?xml version="1.0" encoding="UTF-8"?>
<!-- Uploaded to: SVG Find, www.svgrepo.com, Generator: SVG Find Mixer Tools -->
<svg width="800px" height="800px" version="1.1" viewBox="144 144 512 512" xmlns="http://www.w3.org/2000/svg">
 <defs>
  <clipPath id="b">
   <path d="m148.09 194h330.91v343h-330.91z"/>
  </clipPath>
  <clipPath id="a">
   <path d="m321 262h330.9v343h-330.9z"/>
  </clipPath>
 </defs>
 <g>
  <g clip-path="url(#b)">
   <path d="m277.35 505.96c-35.918-2.7734-67.988-23.551-85.191-55.203-17.207-31.648-17.207-69.863 0-101.51 17.203-31.652 49.273-52.43 85.191-55.199 48.965-3.4648 98.402-4.2539 147.36-4.2539l-35.895 35.738c-2.9805 2.957-4.6562 6.9805-4.6562 11.18s1.6758 8.2227 4.6562 11.18c2.957 2.9805 6.9805 4.6562 11.18 4.6562 4.1953 0 8.2188-1.6758 11.176-4.6562l62.977-62.977c2.9805-2.957 4.6562-6.9805 4.6562-11.18 0-4.1953-1.6758-8.2227-4.6562-11.176l-62.977-62.977c-3.9922-3.9961-9.8125-5.5547-15.27-4.0938-5.4531 1.4609-9.7148 5.7227-11.176 11.18-1.4648 5.4531 0.097656 11.277 4.0898 15.27l36.527 36.367c-50.066 0-100.29 0-150.04 4.0938h-0.003906c-46.348 3.8477-87.629 30.824-109.76 71.73-22.133 40.902-22.133 90.215 0 131.12 22.133 40.906 63.414 67.883 109.76 71.73h1.1016c5.625 0.16797 10.914-2.6758 13.871-7.4648 2.9609-4.7852 3.1406-10.789 0.47266-15.742-2.6641-4.957-7.7734-8.1133-13.398-8.2812z"/>
  </g>
  <g clip-path="url(#a)">
   <path d="m524.69 262.71c-4.1523-0.25781-8.2383 1.1328-11.363 3.8789-3.1289 2.7422-5.043 6.6133-5.3242 10.762-0.26172 4.1523 1.1328 8.2383 3.8789 11.367 2.7422 3.125 6.6133 5.0391 10.762 5.3242 35.918 2.7695 67.988 23.547 85.191 55.199 17.207 31.648 17.207 69.863 0 101.51-17.203 31.652-49.273 52.43-85.191 55.203-48.965 3.4648-98.242 4.5664-147.36 3.9375l35.895-35.738v-0.003906c3.9961-3.9922 5.5547-9.8125 4.0938-15.27-1.4648-5.4531-5.7227-9.7148-11.18-11.18-5.457-1.4609-11.277 0.10156-15.27 4.0938l-62.977 62.977c-2.9805 2.957-4.6562 6.9805-4.6562 11.176 0 4.1992 1.6758 8.2227 4.6562 11.18l62.977 62.977c2.957 2.9805 6.9805 4.6562 11.18 4.6562 4.1953 0 8.2188-1.6758 11.176-4.6562 2.9805-2.957 4.6562-6.9805 4.6562-11.18 0-4.1953-1.6758-8.2227-4.6562-11.176l-36.523-36.055h25.348c41.723 0 83.602-1.418 125.01-4.4102 46.348-3.8477 87.629-30.82 109.76-71.727 22.133-40.906 22.133-90.215 0-131.12-22.133-40.902-63.414-67.879-109.76-71.727z"/>
  </g>
 </g>
</svg>