<svg width="39" height="39" viewBox="0 0 39 39" fill="none" xmlns="http://www.w3.org/2000/svg">
<path d="M26 27.625L34.125 19.5M34.125 19.5L26 11.375M34.125 19.5H14.625M19.5 27.625C19.5 28.1053 19.5 28.3455 19.4821 28.5535C19.2966 30.7157 17.7041 32.4949 15.5757 32.9181C15.3709 32.9588 15.132 32.9853 14.6548 33.0384L12.995 33.2228C10.5015 33.4998 9.25471 33.6384 8.2642 33.3214C6.94352 32.8988 5.8653 31.9337 5.29941 30.6678C4.875 29.7183 4.875 28.4639 4.875 25.955V13.045C4.875 10.5361 4.875 9.28168 5.29942 8.33223C5.8653 7.06629 6.94352 6.10124 8.2642 5.67862C9.25472 5.36165 10.5015 5.50018 12.995 5.77724L14.6548 5.96166C15.1322 6.0147 15.3709 6.04122 15.5757 6.08194C17.7041 6.50514 19.2966 8.28432 19.4821 10.4465C19.5 10.6545 19.5 10.8947 19.5 11.375" stroke="#FF502F" stroke-width="3.25" stroke-linecap="round" stroke-linejoin="round"/>
</svg>
