<?xml version="1.0" encoding="UTF-8"?>
<!-- Uploaded to: SVG Find, www.svgrepo.com, Generator: SVG Find Mixer Tools -->
<svg width="800px" height="800px" version="1.1" viewBox="144 144 512 512" xmlns="http://www.w3.org/2000/svg">
 <defs>
  <clipPath id="b">
   <path d="m403 447h248.9v127h-248.9z"/>
  </clipPath>
  <clipPath id="a">
   <path d="m163 273h488.9v253h-488.9z"/>
  </clipPath>
 </defs>
 <g>
  <g clip-path="url(#b)">
   <path d="m600.11 451.8c-3.9922-3.9922-9.8164-5.5547-15.27-4.0938-5.457 1.4648-9.7188 5.7266-11.18 11.18-1.4609 5.457 0.097656 11.277 4.0938 15.27l20.465 20.309h-80.609c-33.895 2.3867-66.566-13.145-86.117-40.934-3.375-4.5-8.8945-6.8555-14.48-6.1836-5.5859 0.67188-10.387 4.2734-12.594 9.4453-2.2109 5.1719-1.4922 11.133 1.8828 15.633 25.625 35.562 67.531 55.715 111.31 53.527h80.609l-20.469 20.309 0.003906 0.003907c-2.9805 2.957-4.6602 6.9805-4.6602 11.176 0 4.1992 1.6797 8.2227 4.6602 11.18 2.9531 2.9805 6.9805 4.6562 11.176 4.6562 4.1992 0 8.2227-1.6758 11.18-4.6562l47.23-47.23c2.9805-2.957 4.6602-6.9805 4.6602-11.18s-1.6797-8.2227-4.6602-11.18z"/>
  </g>
  <g clip-path="url(#a)">
   <path d="m600.11 278.61c-3.9922-3.9961-9.8164-5.5547-15.27-4.0938-5.457 1.4609-9.7188 5.7227-11.18 11.18-1.4609 5.4531 0.097656 11.277 4.0938 15.27l20.465 20.309h-80.609c-25.078-1.1445-49.965 4.8828-71.742 17.375-21.777 12.492-39.543 30.934-51.219 53.16-20.309-34.637-48.805-70.535-112.25-70.535h-102.81c-5.625 0-10.824 3-13.637 7.8711-2.8125 4.875-2.8125 10.875 0 15.746 2.8125 4.8711 8.0117 7.8711 13.637 7.8711h102.81c51.168 0 70.375 28.023 94.465 70.535-22.043 39.832-40.934 70.848-94.465 70.848h-102.81c-5.625 0-10.824 3-13.637 7.8711-2.8125 4.8711-2.8125 10.875 0 15.746s8.0117 7.8711 13.637 7.8711h102.81c73.684 0 100.45-48.492 124.06-91.316 23.617-42.824 45.027-81.555 111.15-81.555h80.609l-20.469 20.309 0.003906 0.003906c-2.9805 2.9531-4.6602 6.9766-4.6602 11.176 0 4.1992 1.6797 8.2227 4.6602 11.18 2.9531 2.9805 6.9805 4.6562 11.176 4.6562 4.1992 0 8.2227-1.6758 11.18-4.6562l47.23-47.23v-0.003906c2.9805-2.9531 4.6602-6.9805 4.6602-11.176 0-4.1992-1.6797-8.2227-4.6602-11.18z"/>
  </g>
 </g>
</svg>