<?xml version="1.0" encoding="UTF-8"?>
<!-- Uploaded to: SVG Find, www.svgrepo.com, Generator: SVG Find Mixer Tools -->
<svg fill="#000000" width="800px" height="800px" version="1.1" viewBox="144 144 512 512" xmlns="http://www.w3.org/2000/svg">
 <path d="m400 179.58c62.324 1.6367 114.23 23.203 155.72 64.691 41.492 41.492 63.055 93.398 64.691 155.73-1.6367 62.324-23.199 114.23-64.691 155.72-41.492 41.492-93.398 63.055-155.72 64.691-62.328-1.6367-114.23-23.199-155.73-64.691-41.488-41.492-63.055-93.398-64.691-155.72 1.6367-62.328 23.203-114.23 64.691-155.73 41.492-41.488 93.398-63.055 155.73-64.691zm0 409.34c53.465-1.3125 97.988-19.766 133.57-55.355 35.582-35.59 54.035-80.117 55.355-133.57-1.3125-53.469-19.766-97.992-55.355-133.57-35.59-35.582-80.117-54.035-133.57-55.355-53.469 1.3125-97.992 19.766-133.57 55.355-35.582 35.594-54.035 80.117-55.355 133.57 1.3125 53.465 19.766 97.988 55.355 133.57 35.594 35.582 80.117 54.035 133.57 55.355zm-47.234-267.65c10.496 0 15.746 5.25 15.746 15.746v125.95c0 10.492-5.25 15.742-15.746 15.742s-15.742-5.25-15.742-15.742v-125.95c0-10.496 5.2461-15.746 15.742-15.746zm94.465 0c10.496 0 15.746 5.25 15.746 15.746v125.95c0 10.492-5.25 15.742-15.746 15.742-10.496 0-15.742-5.25-15.742-15.742v-125.95c0-10.496 5.2461-15.746 15.742-15.746z"/>
</svg>