<?xml version="1.0" encoding="UTF-8"?>
<!-- Uploaded to: SVG Find, www.svgrepo.com, Generator: SVG Find Mixer Tools -->
<svg fill="#000000" width="800px" height="800px" version="1.1" viewBox="144 144 512 512" xmlns="http://www.w3.org/2000/svg">
 <path d="m556.13 584.99h-56.969v-91.582c0-6.7266-5.4414-12.176-12.172-12.176-6.7227 0-12.184 5.4531-12.184 12.176v91.582h-149.62v-91.582c0-6.7266-5.4609-12.176-12.176-12.176-6.7266 0-12.184 5.4531-12.184 12.176v91.582h-56.961v-78.441c0-57.738 46.984-104.72 104.73-104.72h102.81c57.738 0 104.73 46.98 104.73 104.72v78.441zm-104.73-207.52h-102.81c-71.18 0-129.08 57.902-129.08 129.07v90.621c0 6.7227 5.457 12.172 12.184 12.172h336.61c6.7266 0 12.176-5.4531 12.176-12.172l0.003906-90.621c0-71.168-57.91-129.07-129.08-129.07zm-51.406-162.46c35.645 0 64.648 29.004 64.648 64.652 0 35.645-29.004 64.645-64.648 64.645-35.641 0-64.645-29-64.645-64.645-0.003907-35.645 29-64.652 64.645-64.652zm0 153.65c49.082 0 89.004-39.926 89.004-88.996 0-49.074-39.922-89.004-89.004-89.004-49.074 0-88.992 39.926-88.992 89.004-0.007812 49.07 39.91 88.996 88.992 88.996z" fill-rule="evenodd"/>
</svg>